<?xml version="1.0" encoding="UTF-8"?>
<svg version="1.1" xmlns="http://www.w3.org/2000/svg" width="587" height="417">
<path d="M0 0 C1.19842781 -0.01058945 1.19842781 -0.01058945 2.42106628 -0.02139282 C35.46261151 -0.24716505 35.46261151 -0.24716505 50.29296875 3.203125 C51.18757813 3.40180176 52.0821875 3.60047852 53.00390625 3.80517578 C78.07765706 9.47479931 101.42602059 18.70069193 121.29296875 35.203125 C121.84227051 35.65623047 122.39157227 36.10933594 122.95751953 36.57617188 C126.777738 39.73696766 130.562873 42.9362872 134.29296875 46.203125 C135.35149048 47.12702026 135.35149048 47.12702026 136.43139648 48.06958008 C143.27137904 54.12630011 149.75252237 60.50920053 156.19848633 66.97827148 C157.98471545 68.7698845 159.77626222 70.55605555 161.56835938 72.34179688 C167.35680209 78.12657691 173.01417974 83.9429021 178.29296875 90.203125 C179.24163285 91.2867845 180.19210857 92.36886116 181.14453125 93.44921875 C188.32171139 101.67768611 195.02542917 110.20100923 201.57910156 118.93164062 C203.31042728 121.22626378 205.06132865 123.50475725 206.81640625 125.78125 C247.66598287 179.06641106 310.63769562 264.2487721 301.796875 334.7578125 C298.01993183 359.84547491 287.19133919 379.46808434 266.796875 394.69921875 C254.84478676 403.36228025 241.74493585 408.56806893 227.79296875 413.015625 C227.14682617 413.22268066 226.50068359 413.42973633 225.83496094 413.64306641 C218.86359071 415.78574286 212.08641662 416.36363352 204.8515625 416.40625 C203.65702454 416.41683945 203.65702454 416.41683945 202.43835449 416.42764282 C163.00084525 416.69750667 130.4535037 409.53571119 95.39453125 391.16015625 C81.83649967 384.11717728 68.0085824 378.8363039 53.10546875 375.390625 C52.26419434 375.19573486 51.42291992 375.00084473 50.55615234 374.80004883 C36.3102838 371.71276366 22.25333862 370.82403729 7.73046875 370.890625 C6.90080597 370.89244781 6.07114319 370.89427063 5.21633911 370.89614868 C-8.27847912 370.9458805 -21.42811839 371.63039894 -34.70703125 374.203125 C-35.59583984 374.36941406 -36.48464844 374.53570312 -37.40039062 374.70703125 C-61.06242835 379.28022394 -81.52836283 390.81088742 -102.44921875 402.375 C-123.0178878 413.60954241 -145.54692516 417.61748719 -168.83203125 417.515625 C-169.83600449 417.51289078 -169.83600449 417.51289078 -170.86026001 417.51010132 C-182.69167012 417.45626399 -194.11041726 416.56238808 -205.70703125 414.203125 C-206.55297852 414.03683594 -207.39892578 413.87054688 -208.27050781 413.69921875 C-233.25237734 408.6334247 -257.12819391 395.36361193 -271.54370117 373.76464844 C-285.89652398 351.41460747 -288.61874519 324.85836155 -283.08203125 298.890625 C-282.3715283 295.96807286 -281.55830816 293.08732245 -280.70703125 290.203125 C-280.53526367 289.55859375 -280.36349609 288.9140625 -280.18652344 288.25 C-273.45432267 263.29901862 -257.08554109 240.06117094 -243.58935547 218.27001953 C-241.94208501 215.58610105 -240.32978868 212.88744526 -238.7421875 210.16796875 C-224.10189866 185.10237536 -207.47471019 160.85735614 -190.39453125 137.390625 C-189.59196899 136.28460938 -189.59196899 136.28460938 -188.77319336 135.15625 C-187.08735881 132.8364243 -185.39758938 130.51951007 -183.70703125 128.203125 C-183.14081055 127.42533691 -182.57458984 126.64754883 -181.99121094 125.84619141 C-174.54943799 115.63318794 -166.94674674 105.56737272 -159.15234375 95.62109375 C-156.28631147 91.95966064 -153.46783625 88.26456939 -150.66137695 84.55737305 C-144.59006046 76.54504087 -138.31292688 68.78017833 -131.70703125 61.203125 C-130.93746094 60.30980469 -130.16789063 59.41648438 -129.375 58.49609375 C-98.07806682 22.81430128 -47.40803297 0.28074709 0 0 Z " fill="#A34E16" transform="translate(284.70703125,-0.203125)"/>
</svg>
