<?xml version="1.0" encoding="UTF-8"?>
<svg version="1.1" xmlns="http://www.w3.org/2000/svg" width="218" height="282">
<path d="M0 0 C1.03809814 0.00499512 2.07619629 0.00999023 3.14575195 0.01513672 C28.45562623 0.57753527 51.81591908 13.02586414 70.5 29.5 C71.32886719 30.21929688 72.15773437 30.93859375 73.01171875 31.6796875 C83.69540866 41.10548613 93.20301528 50.93250198 101.5 62.5 C102.10062256 63.32612793 102.10062256 63.32612793 102.71337891 64.16894531 C119.41523088 87.34839835 131.55682784 114.56275274 137.5 142.5 C137.69464844 143.3765625 137.88929688 144.253125 138.08984375 145.15625 C141.04648328 158.91525224 141.88998254 172.47475477 141.9375 186.5 C141.9436734 187.26979187 141.9498468 188.03958374 141.95620728 188.83270264 C142.08630279 214.01341201 137.16547421 242.2105931 119.18530273 260.94262695 C107.07437143 273.09108244 93.86484515 282.68842737 76.14355469 282.77856445 C75.27118164 282.76913818 74.39880859 282.75971191 73.5 282.75 C72.57864258 282.74250732 71.65728516 282.73501465 70.70800781 282.72729492 C39.30002437 282.24011736 14.1452816 270.89073441 -9.5 250.5 C-10.96953125 249.25089844 -10.96953125 249.25089844 -12.46875 247.9765625 C-20.20716489 241.24995004 -26.461922 233.76385206 -32.5 225.5 C-33.67369141 223.90671875 -33.67369141 223.90671875 -34.87109375 222.28125 C-49.9151155 201.21440499 -60.31842502 177.55428294 -68.6015625 153.13427734 C-69.32448944 151.01460841 -70.07911055 148.90576254 -70.84375 146.80078125 C-76.52964013 130.32462234 -76.7940965 112.92689151 -76.875 95.6875 C-76.88285522 94.86509827 -76.89071045 94.04269653 -76.89880371 93.19537354 C-77.06875816 70.31368723 -73.77619413 43.91949765 -57.53515625 26.46484375 C-41.69311417 11.1701275 -22.44193238 -0.14417846 0 0 Z " fill="#9E4B15" transform="translate(76.5,-0.5)"/>
</svg>
