<?xml version="1.0" encoding="UTF-8"?>
<svg version="1.1" xmlns="http://www.w3.org/2000/svg" width="239" height="366">
<path d="M0 0 C37.10241308 27.84288538 54.53966104 78.07314633 61.31640625 122.19140625 C70.03952319 184.18569592 64.46254078 252.87210877 25.89379883 304.54150391 C7.9458336 327.9524958 -12.63860922 343.88446091 -42.37109375 348.37890625 C-46.70534261 348.8944116 -51.01100627 349.19589023 -55.37109375 349.37890625 C-56.39460938 349.44335938 -57.418125 349.5078125 -58.47265625 349.57421875 C-81.98008284 350.449185 -101.31515735 339.22891843 -118.1484375 323.83984375 C-124.06543039 318.09607561 -129.30692339 311.87807918 -134.37109375 305.37890625 C-135.00402344 304.59773438 -135.63695312 303.8165625 -136.2890625 303.01171875 C-162.244773 269.51012128 -174.38590518 223.05928057 -174.57421875 181.16015625 C-174.58136902 180.11253616 -174.58851929 179.06491608 -174.59588623 177.98554993 C-174.91797823 116.90419203 -164.9191767 55.0345218 -120.68359375 9.25390625 C-88.6630856 -22.79743532 -36.70418983 -25.09429782 0 0 Z " fill="#A04D15" transform="translate(174.37109375,16.62109375)"/>
</svg>
