<?xml version="1.0" encoding="UTF-8"?>
<svg version="1.1" xmlns="http://www.w3.org/2000/svg" width="240" height="366">
<path d="M0 0 C1.05832031 0.37382813 2.11664063 0.74765625 3.20703125 1.1328125 C20.36860367 7.78595097 32.9723773 18.41213487 44 33 C44.43892578 33.56444824 44.87785156 34.12889648 45.33007812 34.71044922 C83.98642333 84.724448 94.51591779 153.10928152 87.48071289 214.63574219 C81.62125141 260.3065033 64.43883756 312.9563122 26.5 342.3125 C10.20240974 354.51146495 -7.55819691 361.10203966 -28 362 C-29.92972656 362.09667969 -29.92972656 362.09667969 -31.8984375 362.1953125 C-56.66447966 363.05691429 -76.73892265 352.46383077 -94.75 336 C-99.48747475 331.5778542 -103.88319538 327.01007355 -108 322 C-108.6703125 321.25234375 -109.340625 320.5046875 -110.03125 319.734375 C-129.61543816 297.25393366 -140.2725124 267.05380152 -146.3125 238.3125 C-146.55500488 237.16225342 -146.79750977 236.01200684 -147.04736328 234.8269043 C-150.55978002 217.21889853 -151.37670566 199.92127546 -151.3125 182 C-151.31034485 180.918396 -151.3081897 179.83679199 -151.30596924 178.72241211 C-151.12936854 123.48824838 -136.38217972 63.19060417 -96.75 22.1875 C-71.37207914 -1.2635028 -33.13241797 -11.77528443 0 0 Z " fill="#A14D15" transform="translate(151,4)"/>
</svg>
