<?xml version="1.0" encoding="UTF-8"?>
<svg version="1.1" xmlns="http://www.w3.org/2000/svg" width="218" height="283">
<path d="M0 0 C1.59556289 1.27210124 3.15628534 2.58863227 4.6875 3.9375 C5.67363281 4.77796875 6.65976563 5.6184375 7.67578125 6.484375 C24.77695561 21.37248761 36.58373659 41.24133297 39.6875 63.9375 C39.85884575 67.04774574 39.89810275 70.15503757 39.92578125 73.26953125 C39.93552979 74.17044495 39.94527832 75.07135864 39.95532227 75.99957275 C40.12141915 95.33781819 40.09546115 114.00536118 35.6875 132.9375 C35.41462158 134.18345947 35.41462158 134.18345947 35.13623047 135.45458984 C27.4680698 170.0264134 9.96359155 204.81398918 -14.3046875 230.7734375 C-16.02604315 232.62875078 -17.60907091 234.52470874 -19.1875 236.5 C-23.29208458 241.31499345 -28.34686195 245.05789083 -33.3125 248.9375 C-34.21871094 249.67097656 -35.12492188 250.40445312 -36.05859375 251.16015625 C-44.5544678 257.84137759 -53.76697752 262.92116336 -63.3125 267.9375 C-63.94381836 268.26975586 -64.57513672 268.60201172 -65.22558594 268.94433594 C-84.46266628 278.99355701 -108.631587 278.00577137 -129.25 272.125 C-146.30433741 266.35723139 -158.08853251 250.70632233 -166.2578125 235.13574219 C-174.76481662 217.78643537 -177.73190664 199.59151091 -177.625 180.4375 C-177.62284485 179.73818359 -177.6206897 179.03886719 -177.61846924 178.31835938 C-177.35087981 123.92191392 -154.29080008 69.07410621 -115.87792969 30.46386719 C-88.60840438 3.87480415 -37.20403177 -24.37303499 0 0 Z " fill="#9E4B15" transform="translate(177.3125,7.0625)"/>
</svg>
